<?xml version="1.0" encoding="utf-8"?>
<!-- Generator: Adobe Illustrator 24.0.1, SVG Export Plug-In . SVG Version: 6.00 Build 0)  -->
<svg version="1.1" id="Layer_1" xmlns="http://www.w3.org/2000/svg" x="0px" y="0px"
     viewBox="0 0 584.4 227.5" style="enable-background:new 0 0 584.4 227.5;" xml:space="preserve">
<style type="text/css">
	.st0{fill:#66C691;}
	.st1{fill:#FF6C73;stroke:#FFFFFF;stroke-width:1.4386;stroke-miterlimit:10;}
	.st2{fill:#FF6C73;}
	.st3{display:none;}
	.st4{fill:#352E2F;}
</style>
    <path class="st2" d="M121.8,126.6c-1.5-1.5-2.5-3.6-2.5-6c0-12.7-10.3-23-23-23c-4.7,0-8.4-3.8-8.4-8.4s3.8-8.4,8.4-8.4
	c19.1,0,35.1,13.5,38.9,31.4h22.1c-4.1-30-29.9-53.2-61.1-53.2c-4.7,0-8.4-3.8-8.4-8.4V11.9c0-2.2,0.9-4.4,2.5-6
	c1.6-1.6,3.7-2.5,6-2.5c64.6,0,117.2,52.6,117.2,117.2c0,4.7-3.8,8.4-8.4,8.4s-8.4-3.8-8.4-8.4c0-52.5-40.5-95.6-91.9-99.9l0,21.9
	c39.3,4.2,70.1,37.6,70.1,78.1c0,4.7-3.8,8.4-8.4,8.4h-38.7C125.4,129.1,123.3,128.1,121.8,126.6z"/>
    <path class="st4" d="M61,204.5c5.3,0,9.1,3.9,9.1,8.7c0,5-3.7,8.7-9.1,8.7H13.2c-5.3,0-9.2-3.9-9.2-9.1v-91.6c0-5.2,4.2-9.4,9.4-9.4
	s9.4,4.2,9.4,9.4v83.2H61z"/>
    <path class="st4"
          d="M100,214.5c0,4.8-3.9,8.7-8.7,8.7s-8.7-3.9-8.7-8.7V156c0-4.8,3.9-8.7,8.7-8.7s8.7,3.9,8.7,8.7V214.5z"/>
    <circle class="st2" cx="91.3" cy="125.7" r="10.9"/>
    <path class="st4" d="M136.5,217.9l-25.9-58.5c-0.3-0.8-0.6-1.9-0.6-3.4c0-4.8,3.9-8.7,8.7-8.7c4.8,0,7.3,3.4,8.1,5.5l17.8,44.9
	l17.8-44.9c0.8-2.1,3.2-5.5,8.1-5.5s8.7,3.9,8.7,8.7c0,1.5-0.3,2.6-0.6,3.4l-25.9,58.5c-1.5,3.2-4.4,5.3-8.1,5.3
	S138,221.1,136.5,217.9z"/>
    <path class="st4" d="M220.9,146.3c27.3,0,32.3,21,32.3,32.2c0,6,0,12.9-9.9,12.9h-39.9c0,11.6,8.2,17,18.9,17c7.1,0,12.1-2.4,16-5
	c1.8-1.1,3.1-1.8,5.2-1.8c4.2,0,7.6,3.4,7.6,7.6c0,2.6-1.3,4.7-2.7,6c-2.7,2.6-11.3,8.9-26,8.9c-22.5,0-36.3-12.1-36.3-39.1
	C186,160.2,198.9,146.3,220.9,146.3z M203.9,176.9h32c0-7.9-4.5-15.7-15-15.7C211.5,161.2,204.8,166.5,203.9,176.9z"/>
    <path class="st4" d="M358.2,115.6v88.5c0,1.9,1.9,2.9,3.1,2.9c4.5,0,8.1,3.6,8.1,8.1s-3.6,8.1-8.1,8.1c-12.6,0-20.5-7.1-20.5-20.7
	v-86.9c0-4.8,3.9-8.7,8.7-8.7C354.3,106.9,358.2,110.8,358.2,115.6z"/>
    <path class="st4" d="M392,168c-1.6,1.1-2.9,1.6-4.8,1.6c-4.2,0-7.6-3.4-7.6-7.6c0-1.8,0.7-3.7,2.1-5.3c4.5-5,12.6-10.3,26.5-10.3
	c20,0,32,9.9,32,27v41.4c0,4.7-3.9,8.6-8.6,8.6c-4.7,0-8.6-3.9-8.6-8.6c-4.4,6.9-11.5,9.4-21.2,9.4c-15.8,0-26.3-9.9-26.3-24.4
	c0-15,12.1-22.8,26.2-22.8h21.2v-2.9c0-7.3-5.3-12.1-14.7-12.1C401,161.8,396,165.1,392,168z M422.8,194.9v-4.5h-18.9
	c-7.1,0-11,3.4-11,9.2c0,6.1,4.4,9.9,13.4,9.9C414.9,209.5,422.8,204,422.8,194.9z"/>
    <path class="st4" d="M472,167.6c0,12,39.7,6.5,39.7,33.1c0,15.2-12.9,22.9-29.6,22.9c-13.9,0-24.6-6.3-28.6-11.3
	c-1.3-1.6-1.9-3.1-1.9-5c0-4.2,3.6-7.8,7.8-7.8c1.6,0,3.2,0.5,5,1.9c4.4,3.6,9.7,6.6,17.8,6.6c7.3,0,12-1.9,12-6.5
	c0-13.1-39.6-6.3-39.6-33.8c0-14.5,12.1-21.7,27-21.7c11.5,0,21.6,4.4,26.2,10c1,1.3,1.6,2.4,1.6,4.8c0,4.2-3.6,7.8-7.8,7.8
	c-2.3,0-3.7-1-5.5-2.3c-3.6-2.6-7.9-5.2-14.5-5.2C475.5,161.5,472,163.6,472,167.6z"/>
    <path class="st4" d="M540.7,167.6c0,12,39.7,6.5,39.7,33.1c0,15.2-12.9,22.9-29.6,22.9c-13.9,0-24.6-6.3-28.6-11.3
	c-1.3-1.6-1.9-3.1-1.9-5c0-4.2,3.6-7.8,7.8-7.8c1.6,0,3.2,0.5,5,1.9c4.4,3.6,9.7,6.6,17.8,6.6c7.3,0,12-1.9,12-6.5
	c0-13.1-39.6-6.3-39.6-33.8c0-14.5,12.1-21.7,27-21.7c11.5,0,21.6,4.4,26.2,10c1,1.3,1.6,2.4,1.6,4.8c0,4.2-3.6,7.8-7.8,7.8
	c-2.3,0-3.7-1-5.5-2.3c-3.6-2.6-7.9-5.2-14.5-5.2C544.2,161.5,540.7,163.6,540.7,167.6z"/>
    <g>
	<path class="st4" d="M313.8,219.8l-24-32.2l-5.2,4v23.2c0,4.8-3.9,8.4-8.7,8.4c-5,0-8.7-3.5-8.7-8.4v-99.2c0-4.8,3.7-8.4,8.7-8.4
		c4.8,0,8.7,3.5,8.7,8.4v56.8l29.1-22.9c2.1-1.6,3.7-2.1,5.6-2.1c4.7,0,8.4,3.7,8.4,8.4c0,2.4-1.1,5-3.2,6.6l-21.1,16.1l23.7,31.1
		c1.3,1.8,1.8,3.5,1.8,5.2c0,4.7-3.7,8.4-8.4,8.4C317.5,223.2,315.2,221.8,313.8,219.8z"/>
</g>
</svg>
